<svg xmlns="http://www.w3.org/2000/svg" viewBox="0 0 512 392.04"><defs><style>.cls-1{fill:#fff;}</style></defs><title>login2</title><g id="Capa_2" data-name="Capa 2"><g id="Capa_1-2" data-name="Capa 1"><path class="cls-1" d="M416,384H332a12,12,0,0,1-12-12V332a12,12,0,0,1,12-12h84a32,32,0,0,0,32-32V96a32,32,0,0,0-32-32H332a12,12,0,0,1-12-12V12A12,12,0,0,1,332,0h84a96,96,0,0,1,96,96V288A96,96,0,0,1,416,384ZM369,183,201,15c-15-15-41-4.5-41,17v96H24A23.94,23.94,0,0,0,0,152v96a23.94,23.94,0,0,0,24,24H160v96c0,21.5,26,32,41,17L369,217A24.2,24.2,0,0,0,369,183Z"/></g></g></svg>